<svg xmlns="http://www.w3.org/2000/svg" viewBox="0 0 120 80">
  <style>.st0{fill:#7799AA;}</style>
  <g>
    <path class="st0" d="M16.8,30.7h-3.7v5.5h3.6c2.2,0,3.1-1,3.1-2.8C19.8,31.8,19,30.7,16.8,30.7z"/>
    <path class="st0" d="M109.7,0H9.9C4.4,0,0,4.4,0,9.9v38.6c0,5.4,4.4,9.9,9.9,9.9h20.4l13.9,16.1l-4.1-16.1h69.6
      c5.4,0,9.9-4.4,9.9-9.9V9.9C119.6,4.4,115.2,0,109.7,0z M16.6,41.8h-3.4v8H6.4V25.1H17c5.8,0,9.6,2.2,9.6,8.2
      C26.6,39.5,22.5,41.8,16.6,41.8z M44.7,49.8h-6.4v-1.2c-1.1,0.9-2.5,1.6-4.6,1.6c-4.1,0-6-2.7-6-7.6V31.3h6.4v10.5
      c0,2.4,0.8,3,2.1,3c1.3,0,2.1-0.6,2.1-3V31.3h6.4V49.8z M56.8,50.2c-1.8,0-3.1-0.8-4.1-1.6v1.2h-6.3V26.6l6.3-2.5v8.5
      c1.3-1,2.4-1.7,4.4-1.7c3.5,0,6.2,2.7,6.2,9.6C63.2,47.1,60.9,50.2,56.8,50.2z M70.8,49.8h-6.3V26.6l6.3-2.5V49.8z
      M78.9,49.7h-6.3V31.2h6.3V49.7z M75.8,29.8c-2.1,0-3.6-1.2-3.6-3.1c0-1.8,1.6-3.1,3.6-3.1c2.2,0,3.7,1.3,3.7,3.1
      C79.5,28.6,78,29.8,75.8,29.8z M87.8,50.2c-2.7,0-5.4-0.6-7.7-1.5l1.5-4.8c2.2,1,4.8,1.6,6.4,1.6c1.2,0,1.7-0.3,1.7-0.8
      c0-0.6-0.3-0.8-1.5-1.2c-5.7-1.5-7.7-2.7-7.7-6.5c0-3.8,2.5-6.1,7.5-6.1c2.8,0,4.7,0.5,7.1,1.3l-1.4,4.9
      c-2.4-1.1-4.3-1.6-5.9-1.6c-1.2,0-1.6,0.2-1.6,0.8s0.2,0.8,1.8,1.3c5.2,1.4,7.3,2.6,7.3,6.3C95.5,48.2,92.5,50.2,87.8,50.2z
      M113.8,49.8h-6.4V39.3c0-2.4-0.8-3-2.1-3c-1.3,0-2.2,0.6-2.2,3v10.6h-6.3V26.6l6.3-2.5v8.4c1.2-0.9,2.5-1.6,4.7-1.6
      c4.1,0,6,2.7,6,7.6V49.8z"/>
    <path class="st0" d="M54.9,36.1c-0.9,0-1.6,0.4-2.3,0.9v7.1c0.7,0.5,1.3,0.9,2.3,0.9c1.3,0,2-0.8,2-4.3
      C56.9,37,56.3,36.1,54.9,36.1z"/>
  </g>
</svg>
